<?xml version="1.0" standalone="no"?>
<!DOCTYPE svg PUBLIC "-//W3C//DTD SVG 20010904//EN"
 "http://www.w3.org/TR/2001/REC-SVG-20010904/DTD/svg10.dtd">
<svg version="1.0" xmlns="http://www.w3.org/2000/svg"
 width="16.000000pt" height="16.000000pt" viewBox="0 0 16.000000 16.000000"
 preserveAspectRatio="xMidYMid meet">
<metadata>
Created by potrace 1.11, written by Peter Selinger 2001-2013
</metadata>
<g transform="translate(0.000000,16.000000) scale(0.006250,-0.006250)"
fill="#000000" stroke="none">
<path d="M581 2532 c-69 -42 -155 -128 -147 -148 3 -9 -3 -27 -14 -41 -11 -14
-20 -22 -20 -17 -1 29 -20 -29 -25 -76 -6 -50 -3 -64 20 -108 22 -43 33 -53
61 -58 19 -3 34 -10 34 -14 0 -5 16 -18 36 -31 36 -22 37 -22 50 -4 8 10 14
24 14 31 0 19 45 43 69 37 12 -3 28 0 36 7 20 17 84 4 91 -18 3 -9 9 -24 14
-33 4 -8 3 -23 -2 -33 -5 -10 -7 -20 -4 -24 4 -3 44 -6 89 -6 105 0 152 21
236 102 40 39 79 66 102 74 22 6 39 17 39 24 0 7 10 16 22 20 44 14 54 40 52
135 -1 72 1 91 14 98 12 7 21 0 37 -33 13 -22 32 -45 44 -51 48 -22 86 -239
61 -346 -7 -30 -16 -58 -20 -64 -4 -5 -11 -26 -15 -45 -7 -34 -63 -130 -77
-130 -12 0 -68 -64 -68 -77 0 -7 -7 -13 -15 -13 -8 0 -15 -3 -15 -8 0 -4 -45
-54 -99 -112 -55 -58 -108 -114 -118 -126 -10 -11 -46 -52 -81 -92 -35 -39
-64 -75 -64 -79 -2 -16 -43 -73 -51 -70 -5 1 -29 -16 -54 -39 -31 -29 -45 -50
-45 -68 -1 -13 -9 -34 -19 -45 -11 -11 -19 -25 -19 -31 0 -5 -6 -9 -12 -7 -8
1 -14 -10 -16 -28 -5 -62 -12 -75 -36 -75 -12 0 -36 -11 -51 -24 -28 -24 -65
-40 -65 -28 0 3 8 14 18 25 16 19 16 19 -7 12 -12 -4 -38 -7 -57 -7 -19 0 -37
-4 -40 -9 -3 -5 -10 -9 -15 -9 -6 0 -8 4 -4 9 3 5 -7 11 -22 13 -18 2 -28 9
-28 20 0 28 -11 30 -49 7 -37 -22 -39 -26 -36 -70 1 -22 -4 -27 -29 -32 -18
-4 -41 -1 -58 8 -38 20 -83 19 -113 -2 -14 -10 -33 -16 -44 -15 -10 2 -15 -1
-12 -6 3 -6 -7 -16 -24 -24 -21 -9 -30 -20 -30 -35 0 -13 4 -23 9 -23 5 0 8 8
7 17 0 10 15 25 39 39 34 18 48 20 100 14 33 -5 86 -11 117 -15 47 -6 67 -4
112 15 71 29 184 33 209 8 24 -23 21 -56 -8 -94 -14 -18 -25 -42 -25 -53 0
-13 -5 -18 -13 -15 -8 3 -31 -13 -52 -35 -21 -22 -57 -48 -79 -57 -23 -10 -55
-28 -72 -40 -25 -18 -37 -21 -72 -14 -22 4 -53 16 -68 26 -15 10 -35 24 -46
30 -10 6 -29 21 -42 34 -23 20 -24 21 -28 3 -5 -24 31 -58 79 -73 21 -7 50
-21 65 -31 14 -11 36 -19 49 -19 12 0 38 -5 56 -12 29 -10 42 -10 81 4 35 13
48 14 54 5 5 -8 8 -4 8 10 0 15 5 21 14 17 10 -4 13 0 9 14 -2 11 1 21 9 24
23 9 79 -4 85 -20 8 -19 -33 -50 -61 -45 -26 4 -59 -20 -61 -45 0 -10 -11 -31
-23 -47 -12 -15 -22 -34 -22 -41 0 -19 24 -18 40 1 16 19 59 19 66 0 4 -8 18
-15 33 -15 14 0 35 -7 45 -15 10 -8 23 -12 28 -9 17 11 100 -8 106 -25 3 -9
12 -20 19 -26 7 -5 13 -28 15 -50 1 -22 5 -43 10 -46 4 -3 1 -31 -7 -63 -8
-31 -15 -61 -15 -66 0 -6 181 -10 475 -10 l476 0 -27 27 c-19 19 -23 28 -14
31 8 3 26 -9 42 -27 l28 -31 405 0 405 0 0 528 c0 329 -4 540 -10 562 -6 19
-13 59 -15 89 -4 44 -2 52 10 47 18 -6 19 3 4 41 -14 35 -12 152 2 170 8 9 8
27 -1 64 -7 28 -10 67 -6 87 3 23 0 53 -11 80 -16 42 -33 56 -33 26 0 -8 -4
-12 -10 -9 -6 3 -10 29 -10 56 0 27 -7 60 -15 72 -8 13 -16 40 -17 60 -2 20
-7 37 -12 37 -5 0 -6 3 -3 7 4 3 0 15 -10 25 -9 10 -11 18 -5 18 7 0 9 13 5
35 -4 23 -2 35 6 35 6 0 11 7 11 15 0 18 -16 20 -24 3 -6 -13 -4 8 9 117 9 74
14 79 79 76 l56 -2 0 160 0 161 -604 0 -604 0 4 -42 c2 -29 1 -35 -4 -18 -16
58 -23 61 -103 58 -63 -3 -69 -5 -41 -12 18 -5 43 -21 55 -36 13 -14 29 -24
36 -22 8 3 12 -2 9 -14 -4 -23 -56 -50 -70 -36 -6 6 -26 6 -56 -1 -32 -6 -72
-6 -127 2 -44 6 -104 9 -132 8 -38 -3 -53 0 -53 9 0 19 -20 28 -33 15 -15 -15
-24 -14 -30 3 -6 15 69 58 133 75 26 7 -11 9 -140 10 -174 0 -175 0 -219 -27z
m209 -69 c-1 -10 -25 -43 -32 -43 -4 0 -3 36 1 48 2 6 31 1 31 -5z m110 -124
c0 -5 -9 -9 -20 -9 -22 0 -27 16 -7 23 15 5 27 -1 27 -14z m-140 -10 c-8 -5
-23 -7 -32 -5 -10 2 -18 0 -18 -5 0 -4 -35 -32 -77 -60 l-77 -52 39 47 c42 51
81 76 135 86 40 7 51 3 30 -11z m200 11 c0 -5 -9 -10 -21 -10 -11 0 -17 5 -14
10 3 6 13 10 21 10 8 0 14 -4 14 -10z m-236 -132 c3 -17 14 -40 23 -50 24 -26
9 -33 -31 -14 -19 9 -38 16 -44 16 -5 0 -15 7 -22 15 -11 13 -9 20 10 40 33
35 56 32 64 -7z m-157 -115 c2 -6 -1 -14 -6 -18 -6 -3 -11 -1 -11 5 0 7 -7 10
-15 6 -9 -3 -15 0 -15 9 0 17 42 15 47 -2z m1948 -728 c13 -89 13 -125 -1
-125 -8 0 -14 10 -14 23 0 12 -6 53 -14 90 -16 78 -11 115 10 76 7 -13 16 -42
19 -64z m-1825 -938 c0 -31 -18 -51 -58 -67 -52 -20 -57 0 -13 48 43 47 71 55
71 19z m-128 -17 c-2 -14 -11 -32 -19 -40 -14 -13 -15 -12 -10 16 4 18 1 36
-6 43 -9 10 -7 12 13 9 20 -2 24 -8 22 -28z"/>
<path d="M2465 1880 c3 -5 8 -10 11 -10 2 0 4 5 4 10 0 6 -5 10 -11 10 -5 0
-7 -4 -4 -10z"/>
<path d="M2545 1870 c-3 -5 -1 -18 4 -27 9 -16 10 -14 11 10 0 28 -5 34 -15
17z"/>
<path d="M460 1644 c0 -4 9 -21 19 -38 10 -17 22 -47 25 -66 13 -68 29 -120
37 -120 25 0 45 102 30 154 -12 44 -46 75 -83 76 -16 0 -28 -3 -28 -6z"/>
<path d="M394 1421 c-30 -18 -64 -62 -68 -87 -1 -8 -17 -29 -34 -47 -18 -18
-32 -41 -32 -50 0 -25 26 -32 55 -13 18 12 30 13 50 6 43 -16 102 31 147 118
22 44 23 53 3 45 -9 -3 -23 1 -33 10 -38 33 -57 37 -88 18z"/>
<path d="M50 1346 c0 -14 29 -31 38 -22 2 3 2 12 -1 21 -8 19 -37 20 -37 1z"/>
<path d="M392 1078 c5 -15 28 -23 28 -10 0 5 -7 13 -16 16 -10 4 -14 1 -12 -6z"/>
</g>
</svg>
